<svg width="128" height="128" viewBox="0 0 128 128" fill="none" xmlns="http://www.w3.org/2000/svg">
<rect width="128" height="128" rx="25" fill="#09090B"/>
<path d="M19 52.1453L26.0688 56.2362L35.4319 61.6549L43.5942 56.9311L30.1499 49.1505L32.1905 45.6077L34.2311 42.0649L47.701 49.8603L51.7565 52.2073L51.7822 52.2222L55.8377 54.5692L59.9445 56.9459L64 59.293L64.0256 59.2782V49.8603L64 49.8455L59.9445 47.4984L59.9188 47.4836L51.7822 42.7746L47.701 40.4127L38.3123 34.9792L31.2435 30.8883L19 52.1453Z" fill="white"/>
<path d="M31.2435 97.1453L38.3123 93.0544L47.701 87.6208V78.1733L34.2311 85.9687L32.1905 82.4259L30.1499 78.883L43.5942 71.1024L47.6754 68.7405L47.701 68.7257L51.7822 66.3638L55.8377 64.0168L59.9188 61.6549L51.7822 56.9459L51.7565 56.9311L47.701 59.2782L47.6754 59.293L39.513 64.0168L35.4319 66.3787L26.0688 71.7974L19 75.8883L31.2435 97.1453Z" fill="white"/>
<path d="M76.2691 109V100.818V90.0124L68.1068 85.2886V100.818H64.0256H59.9445V85.2589V80.5648V80.5352V75.841V71.0876V66.3935L59.9188 66.3787L51.7822 71.0876V71.1173V75.8114V75.841V85.2589V89.9827V100.818V109H76.2691Z" fill="white"/>
<path d="M89.6877 93.0544L96.7565 97.1453L109 75.8883L101.931 71.7974L92.5681 66.3787L84.4058 71.1024L97.8501 78.883L95.8095 82.4259L93.7689 85.9687L80.3503 78.2029L76.2691 75.841L76.2435 75.8262L72.1623 73.4643L68.1068 71.1173L64.0256 68.7554V78.1733V78.2029L68.0812 80.55L68.1068 80.5648L76.2691 85.2886L80.3503 87.6505L89.6877 93.0544Z" fill="white"/>
<path d="M101.931 56.2362L109 52.1453L96.7565 30.8883L89.6877 34.9792L80.3503 40.3831V49.8306L93.7689 42.0649L95.8095 45.6077L97.8501 49.1505L84.4058 56.9311L80.3503 59.2782L80.3246 59.293L76.2691 61.6401L72.1623 64.0168L68.1068 66.3638V66.3935L76.2435 71.1024L76.2691 71.0876L80.3246 68.7406L80.3503 68.7257L88.487 64.0168L92.5681 61.6549L101.931 56.2362Z" fill="white"/>
<path d="M76.2691 27.1818V19L51.7822 19V27.1818V38.0508L59.9445 42.7746V27.1818H64.0256H68.1068V42.745V47.4687V47.4984V52.2222V56.9163V61.6401L76.2435 56.9311L76.2691 56.9163V52.2222V52.1925V42.745V38.0212V27.1818Z" fill="white"/>
</svg>
